Upcoming Punjabi Movie
Sirphire (preet harpal)

Ganni Music Video


Format                                   : MPEG-4
Format profile                           : Base Media / Version 2
Codec ID                                 : mp42
File size                                : 48.7 MiB
Duration                                 : 2mn 19s
Overall bit rate mode                    : Variable
Overall bit rate                         : 2 923 Kbps
Encoded date                             : UTC 2012-06-25 15:54:34
Tagged date                              : UTC 2012-06-25 15:54:34

Video
ID                                       : 1
Format                                   : AVC
Format/Info                              : Advanced Video Codec
Format profile                           : High@L3.1
Format settings, CABAC                   : Yes
Format settings, ReFrames                : 1 frame
Format settings, GOP                     : M=1, N=60
Codec ID                                 : avc1
Codec ID/Info                            : Advanced Video Coding
Duration                                 : 2mn 19s
Bit rate                                 : 2 768 Kbps
Maximum bit rate                         : 4 518 Kbps
Width                                    : 1 280 pixels
Height                                   : 720 pixels
Display aspect ratio                     : 16:9
Frame rate mode                          : Constant
Frame rate                               : 25.000 fps
Color space                              : YUV
Chroma subsampling                       : 4:2:0
Bit depth                                : 8 bits
Scan type                                : Progressive
Bits/(Pixel*Frame)                       : 0.120
Stream size                              : 46.1 MiB (95%)
Tagged date                              : UTC 2012-06-25 15:54:34

Audio
ID                                       : 2
Format                                   : AAC
Format/Info                              : Advanced Audio Codec
Format profile                           : LC
Codec ID                                 : 40
Duration                                 : 2mn 19s
Bit rate mode                            : Variable
Bit rate                                 : 152 Kbps
Maximum bit rate                         : 178 Kbps
Channel(s)                               : 2 channels
Channel positions                        : Front: L R
Sampling rate                            : 44.1 KHz
Compression mode                         : Lossy
Stream size                              : 2.53 MiB (5%)
Title                                    : IsoMedia File Produced by Google, 5-11-2011
Encoded date                             : UTC 2012-06-25 15:54:34
Tagged date                              : UTC 2012-06-25 15:54:34

 
http://i.minus.com/ibj3DNjD5xGeS0.jpg